<svg width="1024" height="753" viewBox="0 0 1024 753" fill="none" xmlns="http://www.w3.org/2000/svg">
<g clip-path="url(#clip0_122_130)">
<rect width="1024" height="753" fill="#121214"/>
<g opacity="0.2" filter="url(#filter0_f_122_130)">
<ellipse cx="597.5" cy="30" rx="670.5" ry="350" fill="#338AF3"/>
</g>
<path d="M118.035 266C119.53 266 120.662 266.63 121.431 267.891C122.213 269.138 122.605 270.953 122.605 273.336C122.605 275.719 122.213 277.541 121.431 278.802C120.662 280.063 119.53 280.693 118.035 280.693C116.554 280.693 115.422 280.063 114.639 278.802C113.856 277.541 113.465 275.719 113.465 273.336C113.465 270.967 113.856 269.152 114.639 267.891C115.422 266.63 116.554 266 118.035 266ZM114.953 273.336C114.953 275.026 115.107 276.35 115.415 277.306L120.068 268.099C119.579 267.448 118.901 267.122 118.035 267.122C117.071 267.122 116.316 267.635 115.771 268.66C115.226 269.672 114.953 271.23 114.953 273.336ZM118.035 279.55C119.013 279.55 119.775 279.044 120.32 278.033C120.865 277.008 121.137 275.442 121.137 273.336C121.137 271.549 120.963 270.163 120.613 269.18L115.96 278.469C116.463 279.19 117.154 279.55 118.035 279.55Z" fill="url(#paint0_linear_122_130)" fill-opacity="0.6"/>
<path d="M119.293 303.135H122.374V304.236H114.387V303.135H117.951V291.455L114.555 293.471L113.968 292.536L118.161 289.959H119.293V303.135Z" fill="url(#paint1_linear_122_130)" fill-opacity="0.6"/>
<path d="M118.035 313.502C119.53 313.502 120.662 314.133 121.431 315.393C122.213 316.64 122.605 318.455 122.605 320.838C122.605 323.221 122.213 325.043 121.431 326.304C120.662 327.565 119.53 328.195 118.035 328.195C116.554 328.195 115.422 327.565 114.639 326.304C113.856 325.043 113.465 323.221 113.465 320.838C113.465 318.469 113.856 316.654 114.639 315.393C115.422 314.133 116.554 313.502 118.035 313.502ZM114.953 320.838C114.953 322.529 115.107 323.852 115.415 324.808L120.068 315.601C119.579 314.95 118.901 314.624 118.035 314.624C117.071 314.624 116.316 315.137 115.771 316.162C115.226 317.174 114.953 318.732 114.953 320.838ZM118.035 327.052C119.013 327.052 119.775 326.546 120.32 325.535C120.865 324.51 121.137 322.944 121.137 320.838C121.137 319.051 120.963 317.665 120.613 316.682L115.96 325.971C116.463 326.692 117.154 327.052 118.035 327.052Z" fill="url(#paint2_linear_122_130)" fill-opacity="0.6"/>
<path d="M119.293 350.637H122.374V351.738H114.387V350.637H117.951V338.957L114.555 340.973L113.968 340.038L118.161 337.461H119.293V350.637Z" fill="url(#paint3_linear_122_130)" fill-opacity="0.6"/>
<path d="M119.293 374.388H122.374V375.489H114.387V374.388H117.951V362.708L114.555 364.724L113.968 363.789L118.161 361.212H119.293V374.388Z" fill="url(#paint4_linear_122_130)" fill-opacity="0.6"/>
<path d="M118.035 384.755C119.53 384.755 120.662 385.386 121.431 386.646C122.213 387.893 122.605 389.708 122.605 392.091C122.605 394.474 122.213 396.296 121.431 397.557C120.662 398.818 119.53 399.448 118.035 399.448C116.554 399.448 115.422 398.818 114.639 397.557C113.856 396.296 113.465 394.474 113.465 392.091C113.465 389.722 113.856 387.907 114.639 386.646C115.422 385.386 116.554 384.755 118.035 384.755ZM114.953 392.091C114.953 393.782 115.107 395.105 115.415 396.061L120.068 386.854C119.579 386.203 118.901 385.878 118.035 385.878C117.071 385.878 116.316 386.39 115.771 387.415C115.226 388.427 114.953 389.985 114.953 392.091ZM118.035 398.305C119.013 398.305 119.775 397.8 120.32 396.788C120.865 395.763 121.137 394.197 121.137 392.091C121.137 390.304 120.963 388.919 120.613 387.935L115.96 397.225C116.463 397.945 117.154 398.305 118.035 398.305Z" fill="url(#paint5_linear_122_130)" fill-opacity="0.6"/>
<path d="M119.293 421.89H122.374V422.992H114.387V421.89H117.951V410.21L114.555 412.226L113.968 411.291L118.161 408.714H119.293V421.89Z" fill="url(#paint6_linear_122_130)" fill-opacity="0.6"/>
<path d="M118.035 432.257C119.53 432.257 120.662 432.888 121.431 434.149C122.213 435.396 122.605 437.211 122.605 439.594C122.605 441.977 122.213 443.798 121.431 445.059C120.662 446.32 119.53 446.95 118.035 446.95C116.554 446.95 115.422 446.32 114.639 445.059C113.856 443.798 113.465 441.977 113.465 439.594C113.465 437.224 113.856 435.409 114.639 434.149C115.422 432.888 116.554 432.257 118.035 432.257ZM114.953 439.594C114.953 441.284 115.107 442.607 115.415 443.563L120.068 434.356C119.579 433.705 118.901 433.38 118.035 433.38C117.071 433.38 116.316 433.892 115.771 434.918C115.226 435.929 114.953 437.488 114.953 439.594ZM118.035 445.807C119.013 445.807 119.775 445.302 120.32 444.29C120.865 443.265 121.137 441.699 121.137 439.594C121.137 437.806 120.963 436.421 120.613 435.437L115.96 444.727C116.463 445.447 117.154 445.807 118.035 445.807Z" fill="url(#paint7_linear_122_130)" fill-opacity="0.6"/>
<path d="M118.035 456.008C119.53 456.008 120.662 456.639 121.431 457.9C122.213 459.147 122.605 460.962 122.605 463.345C122.605 465.728 122.213 467.549 121.431 468.81C120.662 470.071 119.53 470.701 118.035 470.701C116.554 470.701 115.422 470.071 114.639 468.81C113.856 467.549 113.465 465.728 113.465 463.345C113.465 460.975 113.856 459.16 114.639 457.9C115.422 456.639 116.554 456.008 118.035 456.008ZM114.953 463.345C114.953 465.035 115.107 466.358 115.415 467.314L120.068 458.107C119.579 457.456 118.901 457.131 118.035 457.131C117.071 457.131 116.316 457.643 115.771 458.669C115.226 459.68 114.953 461.239 114.953 463.345ZM118.035 469.558C119.013 469.558 119.775 469.053 120.32 468.041C120.865 467.016 121.137 465.451 121.137 463.345C121.137 461.557 120.963 460.172 120.613 459.188L115.96 468.478C116.463 469.198 117.154 469.558 118.035 469.558Z" fill="url(#paint8_linear_122_130)" fill-opacity="0.6"/>
<path d="M119.293 493.143H122.374V494.245H114.387V493.143H117.951V481.464L114.555 483.48L113.968 482.544L118.161 479.967H119.293V493.143Z" fill="url(#paint9_linear_122_130)" fill-opacity="0.6"/>
<path d="M118.035 503.511C119.53 503.511 120.662 504.141 121.431 505.402C122.213 506.649 122.605 508.464 122.605 510.847C122.605 513.23 122.213 515.052 121.431 516.312C120.662 517.573 119.53 518.204 118.035 518.204C116.554 518.204 115.422 517.573 114.639 516.312C113.856 515.052 113.465 513.23 113.465 510.847C113.465 508.478 113.856 506.663 114.639 505.402C115.422 504.141 116.554 503.511 118.035 503.511ZM114.953 510.847C114.953 512.537 115.107 513.86 115.415 514.816L120.068 505.61C119.579 504.958 118.901 504.633 118.035 504.633C117.071 504.633 116.316 505.145 115.771 506.171C115.226 507.182 114.953 508.741 114.953 510.847ZM118.035 517.061C119.013 517.061 119.775 516.555 120.32 515.543C120.865 514.518 121.137 512.953 121.137 510.847C121.137 509.059 120.963 507.674 120.613 506.69L115.96 515.98C116.463 516.7 117.154 517.061 118.035 517.061Z" fill="url(#paint10_linear_122_130)" fill-opacity="0.6"/>
<path d="M119.293 540.645H122.374V541.747H114.387V540.645H117.951V528.966L114.555 530.982L113.968 530.046L118.161 527.469H119.293V540.645Z" fill="url(#paint11_linear_122_130)" fill-opacity="0.6"/>
<path d="M119.293 564.396H122.374V565.498H114.387V564.396H117.951V552.717L114.555 554.733L113.968 553.798L118.161 551.221H119.293V564.396Z" fill="url(#paint12_linear_122_130)" fill-opacity="0.6"/>
<path d="M156.965 313.502C158.46 313.502 159.592 314.133 160.361 315.393C161.144 316.64 161.535 318.455 161.535 320.838C161.535 323.221 161.144 325.043 160.361 326.304C159.592 327.565 158.46 328.195 156.965 328.195C155.484 328.195 154.352 327.565 153.569 326.304C152.787 325.043 152.395 323.221 152.395 320.838C152.395 318.469 152.787 316.654 153.569 315.393C154.352 314.133 155.484 313.502 156.965 313.502ZM153.884 320.838C153.884 322.529 154.037 323.852 154.345 324.808L158.998 315.601C158.509 314.95 157.832 314.624 156.965 314.624C156.001 314.624 155.246 315.137 154.701 316.162C154.156 317.174 153.884 318.732 153.884 320.838ZM156.965 327.052C157.943 327.052 158.705 326.546 159.25 325.535C159.795 324.51 160.068 322.944 160.068 320.838C160.068 319.051 159.893 317.665 159.543 316.682L154.89 325.971C155.393 326.692 156.085 327.052 156.965 327.052Z" fill="url(#paint13_linear_122_130)" fill-opacity="0.6"/>
<path d="M158.223 350.637H161.304V351.738H153.318V350.637H156.881V338.957L153.485 340.973L152.898 340.038L157.091 337.461H158.223V350.637Z" fill="url(#paint14_linear_122_130)" fill-opacity="0.6"/>
<path d="M156.965 361.004C158.46 361.004 159.592 361.635 160.361 362.895C161.144 364.142 161.535 365.957 161.535 368.34C161.535 370.723 161.144 372.545 160.361 373.806C159.592 375.067 158.46 375.697 156.965 375.697C155.484 375.697 154.352 375.067 153.569 373.806C152.787 372.545 152.395 370.723 152.395 368.34C152.395 365.971 152.787 364.156 153.569 362.895C154.352 361.635 155.484 361.004 156.965 361.004ZM153.884 368.34C153.884 370.031 154.037 371.354 154.345 372.31L158.998 363.103C158.509 362.452 157.832 362.126 156.965 362.126C156.001 362.126 155.246 362.639 154.701 363.664C154.156 364.676 153.884 366.234 153.884 368.34ZM156.965 374.554C157.943 374.554 158.705 374.049 159.25 373.037C159.795 372.012 160.068 370.446 160.068 368.34C160.068 366.553 159.893 365.168 159.543 364.184L154.89 373.474C155.393 374.194 156.085 374.554 156.965 374.554Z" fill="url(#paint15_linear_122_130)" fill-opacity="0.6"/>
<path d="M156.965 384.755C158.46 384.755 159.592 385.386 160.361 386.646C161.144 387.893 161.535 389.708 161.535 392.091C161.535 394.474 161.144 396.296 160.361 397.557C159.592 398.818 158.46 399.448 156.965 399.448C155.484 399.448 154.352 398.818 153.569 397.557C152.787 396.296 152.395 394.474 152.395 392.091C152.395 389.722 152.787 387.907 153.569 386.646C154.352 385.386 155.484 384.755 156.965 384.755ZM153.884 392.091C153.884 393.782 154.037 395.105 154.345 396.061L158.998 386.854C158.509 386.203 157.832 385.878 156.965 385.878C156.001 385.878 155.246 386.39 154.701 387.415C154.156 388.427 153.884 389.985 153.884 392.091ZM156.965 398.305C157.943 398.305 158.705 397.8 159.25 396.788C159.795 395.763 160.068 394.197 160.068 392.091C160.068 390.304 159.893 388.919 159.543 387.935L154.89 397.225C155.393 397.945 156.085 398.305 156.965 398.305Z" fill="url(#paint16_linear_122_130)" fill-opacity="0.6"/>
<path d="M158.223 421.89H161.304V422.992H153.318V421.89H156.881V410.21L153.485 412.226L152.898 411.291L157.091 408.714H158.223V421.89Z" fill="url(#paint17_linear_122_130)" fill-opacity="0.6"/>
<path d="M156.965 432.257C158.46 432.257 159.592 432.888 160.361 434.149C161.144 435.396 161.535 437.211 161.535 439.594C161.535 441.977 161.144 443.798 160.361 445.059C159.592 446.32 158.46 446.95 156.965 446.95C155.484 446.95 154.352 446.32 153.569 445.059C152.787 443.798 152.395 441.977 152.395 439.594C152.395 437.224 152.787 435.409 153.569 434.149C154.352 432.888 155.484 432.257 156.965 432.257ZM153.884 439.594C153.884 441.284 154.037 442.607 154.345 443.563L158.998 434.356C158.509 433.705 157.832 433.38 156.965 433.38C156.001 433.38 155.246 433.892 154.701 434.918C154.156 435.929 153.884 437.488 153.884 439.594ZM156.965 445.807C157.943 445.807 158.705 445.302 159.25 444.29C159.795 443.265 160.068 441.699 160.068 439.594C160.068 437.806 159.893 436.421 159.543 435.437L154.89 444.727C155.393 445.447 156.085 445.807 156.965 445.807Z" fill="url(#paint18_linear_122_130)" fill-opacity="0.6"/>
<path d="M158.223 469.392H161.304V470.494H153.318V469.392H156.881V457.713L153.485 459.728L152.898 458.793L157.091 456.216H158.223V469.392Z" fill="url(#paint19_linear_122_130)" fill-opacity="0.6"/>
<path d="M156.965 479.76C158.46 479.76 159.592 480.39 160.361 481.651C161.144 482.898 161.535 484.713 161.535 487.096C161.535 489.479 161.144 491.301 160.361 492.561C159.592 493.822 158.46 494.453 156.965 494.453C155.484 494.453 154.352 493.822 153.569 492.561C152.787 491.301 152.395 489.479 152.395 487.096C152.395 484.726 152.787 482.911 153.569 481.651C154.352 480.39 155.484 479.76 156.965 479.76ZM153.884 487.096C153.884 488.786 154.037 490.109 154.345 491.065L158.998 481.859C158.509 481.207 157.832 480.882 156.965 480.882C156.001 480.882 155.246 481.394 154.701 482.42C154.156 483.431 153.884 484.99 153.884 487.096ZM156.965 493.31C157.943 493.31 158.705 492.804 159.25 491.792C159.795 490.767 160.068 489.202 160.068 487.096C160.068 485.308 159.893 483.923 159.543 482.939L154.89 492.229C155.393 492.949 156.085 493.31 156.965 493.31Z" fill="url(#paint20_linear_122_130)" fill-opacity="0.6"/>
<path d="M156.965 503.511C158.46 503.511 159.592 504.141 160.361 505.402C161.144 506.649 161.535 508.464 161.535 510.847C161.535 513.23 161.144 515.052 160.361 516.312C159.592 517.573 158.46 518.204 156.965 518.204C155.484 518.204 154.352 517.573 153.569 516.312C152.787 515.052 152.395 513.23 152.395 510.847C152.395 508.478 152.787 506.663 153.569 505.402C154.352 504.141 155.484 503.511 156.965 503.511ZM153.884 510.847C153.884 512.537 154.037 513.86 154.345 514.816L158.998 505.61C158.509 504.958 157.832 504.633 156.965 504.633C156.001 504.633 155.246 505.145 154.701 506.171C154.156 507.182 153.884 508.741 153.884 510.847ZM156.965 517.061C157.943 517.061 158.705 516.555 159.25 515.543C159.795 514.518 160.068 512.953 160.068 510.847C160.068 509.059 159.893 507.674 159.543 506.69L154.89 515.98C155.393 516.7 156.085 517.061 156.965 517.061Z" fill="url(#paint21_linear_122_130)" fill-opacity="0.6"/>
<path d="M158.223 540.645H161.304V541.747H153.318V540.645H156.881V528.966L153.485 530.982L152.898 530.046L157.091 527.469H158.223V540.645Z" fill="url(#paint22_linear_122_130)" fill-opacity="0.6"/>
<path d="M156.965 551.013C158.46 551.013 159.592 551.643 160.361 552.904C161.144 554.151 161.535 555.966 161.535 558.349C161.535 560.732 161.144 562.554 160.361 563.815C159.592 565.075 158.46 565.706 156.965 565.706C155.484 565.706 154.352 565.075 153.569 563.815C152.787 562.554 152.395 560.732 152.395 558.349C152.395 555.98 152.787 554.165 153.569 552.904C154.352 551.643 155.484 551.013 156.965 551.013ZM153.884 558.349C153.884 560.039 154.037 561.362 154.345 562.318L158.998 553.112C158.509 552.461 157.832 552.135 156.965 552.135C156.001 552.135 155.246 552.648 154.701 553.673C154.156 554.684 153.884 556.243 153.884 558.349ZM156.965 564.563C157.943 564.563 158.705 564.057 159.25 563.046C159.795 562.02 160.068 560.455 160.068 558.349C160.068 556.562 159.893 555.176 159.543 554.192L154.89 563.482C155.393 564.202 156.085 564.563 156.965 564.563Z" fill="url(#paint23_linear_122_130)" fill-opacity="0.6"/>
<path d="M158.223 588.147H161.304V589.249H153.318V588.147H156.881V576.468L153.485 578.484L152.898 577.549L157.091 574.972H158.223V588.147Z" fill="url(#paint24_linear_122_130)" fill-opacity="0.6"/>
<path d="M158.223 611.899H161.304V613H153.318V611.899H156.881V600.219L153.485 602.235L152.898 601.3L157.091 598.723H158.223V611.899Z" fill="url(#paint25_linear_122_130)" fill-opacity="0.6"/>
<path d="M98.5698 337.253C100.065 337.253 101.197 337.884 101.966 339.144C102.748 340.391 103.14 342.206 103.14 344.589C103.14 346.972 102.748 348.794 101.966 350.055C101.197 351.316 100.065 351.946 98.5698 351.946C97.0885 351.946 95.9565 351.316 95.1739 350.055C94.3913 348.794 94 346.972 94 344.589C94 342.22 94.3913 340.405 95.1739 339.144C95.9565 337.884 97.0885 337.253 98.5698 337.253ZM95.4883 344.589C95.4883 346.28 95.6421 347.603 95.9495 348.559L100.603 339.352C100.114 338.701 99.4363 338.375 98.5698 338.375C97.6055 338.375 96.8509 338.888 96.3059 339.913C95.7608 340.925 95.4883 342.483 95.4883 344.589ZM98.5698 350.803C99.5481 350.803 100.31 350.297 100.855 349.286C101.4 348.261 101.672 346.695 101.672 344.589C101.672 342.802 101.498 341.417 101.148 340.433L96.4945 349.722C96.9976 350.443 97.6894 350.803 98.5698 350.803Z" fill="url(#paint26_linear_122_130)" fill-opacity="0.6"/>
<path d="M98.5698 361.004C100.065 361.004 101.197 361.635 101.966 362.895C102.748 364.142 103.14 365.957 103.14 368.34C103.14 370.723 102.748 372.545 101.966 373.806C101.197 375.067 100.065 375.697 98.5698 375.697C97.0885 375.697 95.9565 375.067 95.1739 373.806C94.3913 372.545 94 370.723 94 368.34C94 365.971 94.3913 364.156 95.1739 362.895C95.9565 361.635 97.0885 361.004 98.5698 361.004ZM95.4883 368.34C95.4883 370.031 95.6421 371.354 95.9495 372.31L100.603 363.103C100.114 362.452 99.4363 362.126 98.5698 362.126C97.6055 362.126 96.8509 362.639 96.3059 363.664C95.7608 364.676 95.4883 366.234 95.4883 368.34ZM98.5698 374.554C99.5481 374.554 100.31 374.049 100.855 373.037C101.4 372.012 101.672 370.446 101.672 368.34C101.672 366.553 101.498 365.168 101.148 364.184L96.4945 373.474C96.9976 374.194 97.6894 374.554 98.5698 374.554Z" fill="url(#paint27_linear_122_130)" fill-opacity="0.6"/>
<path d="M99.8276 398.139H102.909V399.24H94.9223V398.139H98.486V386.459L95.09 388.475L94.5031 387.54L98.6956 384.963H99.8276V398.139Z" fill="url(#paint28_linear_122_130)" fill-opacity="0.6"/>
<path d="M98.5698 408.506C100.065 408.506 101.197 409.137 101.966 410.398C102.748 411.644 103.14 413.459 103.14 415.842C103.14 418.225 102.748 420.047 101.966 421.308C101.197 422.569 100.065 423.199 98.5698 423.199C97.0885 423.199 95.9565 422.569 95.1739 421.308C94.3913 420.047 94 418.225 94 415.842C94 413.473 94.3913 411.658 95.1739 410.398C95.9565 409.137 97.0885 408.506 98.5698 408.506ZM95.4883 415.842C95.4883 417.533 95.6421 418.856 95.9495 419.812L100.603 410.605C100.114 409.954 99.4363 409.629 98.5698 409.629C97.6055 409.629 96.8509 410.141 96.3059 411.166C95.7608 412.178 95.4883 413.737 95.4883 415.842ZM98.5698 422.056C99.5481 422.056 100.31 421.551 100.855 420.539C101.4 419.514 101.672 417.948 101.672 415.842C101.672 414.055 101.498 412.67 101.148 411.686L96.4945 420.976C96.9976 421.696 97.6894 422.056 98.5698 422.056Z" fill="url(#paint29_linear_122_130)" fill-opacity="0.6"/>
<path d="M99.8276 445.641H102.909V446.743H94.9223V445.641H98.486V433.962L95.09 435.977L94.5031 435.042L98.6956 432.465H99.8276V445.641Z" fill="url(#paint30_linear_122_130)" fill-opacity="0.6"/>
<path d="M99.8276 469.392H102.909V470.494H94.9223V469.392H98.486V457.713L95.09 459.728L94.5031 458.793L98.6956 456.216H99.8276V469.392Z" fill="url(#paint31_linear_122_130)" fill-opacity="0.6"/>
<path d="M138.758 303.135H141.839V304.236H133.853V303.135H137.416V291.455L134.02 293.471L133.433 292.536L137.626 289.959H138.758V303.135Z" fill="url(#paint32_linear_122_130)" fill-opacity="0.6"/>
<path d="M137.5 313.502C138.995 313.502 140.127 314.133 140.896 315.393C141.679 316.64 142.07 318.455 142.07 320.838C142.07 323.221 141.679 325.043 140.896 326.304C140.127 327.565 138.995 328.195 137.5 328.195C136.019 328.195 134.887 327.565 134.104 326.304C133.321 325.043 132.93 323.221 132.93 320.838C132.93 318.469 133.321 316.654 134.104 315.393C134.887 314.133 136.019 313.502 137.5 313.502ZM134.419 320.838C134.419 322.529 134.572 323.852 134.88 324.808L139.533 315.601C139.044 314.95 138.366 314.624 137.5 314.624C136.536 314.624 135.781 315.137 135.236 316.162C134.691 317.174 134.419 318.732 134.419 320.838ZM137.5 327.052C138.478 327.052 139.24 326.546 139.785 325.535C140.33 324.51 140.602 322.944 140.602 320.838C140.602 319.051 140.428 317.665 140.078 316.682L135.425 325.971C135.928 326.692 136.62 327.052 137.5 327.052Z" fill="url(#paint33_linear_122_130)" fill-opacity="0.6"/>
<path d="M138.758 350.637H141.839V351.738H133.853V350.637H137.416V338.957L134.02 340.973L133.433 340.038L137.626 337.461H138.758V350.637Z" fill="url(#paint34_linear_122_130)" fill-opacity="0.6"/>
<path d="M138.758 374.388H141.839V375.489H133.853V374.388H137.416V362.708L134.02 364.724L133.433 363.789L137.626 361.212H138.758V374.388Z" fill="url(#paint35_linear_122_130)" fill-opacity="0.6"/>
<path d="M137.5 384.755C138.995 384.755 140.127 385.386 140.896 386.646C141.679 387.893 142.07 389.708 142.07 392.091C142.07 394.474 141.679 396.296 140.896 397.557C140.127 398.818 138.995 399.448 137.5 399.448C136.019 399.448 134.887 398.818 134.104 397.557C133.321 396.296 132.93 394.474 132.93 392.091C132.93 389.722 133.321 387.907 134.104 386.646C134.887 385.386 136.019 384.755 137.5 384.755ZM134.419 392.091C134.419 393.782 134.572 395.105 134.88 396.061L139.533 386.854C139.044 386.203 138.366 385.878 137.5 385.878C136.536 385.878 135.781 386.39 135.236 387.415C134.691 388.427 134.419 389.985 134.419 392.091ZM137.5 398.305C138.478 398.305 139.24 397.8 139.785 396.788C140.33 395.763 140.602 394.197 140.602 392.091C140.602 390.304 140.428 388.919 140.078 387.935L135.425 397.225C135.928 397.945 136.62 398.305 137.5 398.305Z" fill="url(#paint36_linear_122_130)" fill-opacity="0.6"/>
<path d="M138.758 421.89H141.839V422.992H133.853V421.89H137.416V410.21L134.02 412.226L133.433 411.291L137.626 408.714H138.758V421.89Z" fill="url(#paint37_linear_122_130)" fill-opacity="0.6"/>
<path d="M138.758 445.641H141.839V446.743H133.853V445.641H137.416V433.962L134.02 435.977L133.433 435.042L137.626 432.465H138.758V445.641Z" fill="url(#paint38_linear_122_130)" fill-opacity="0.6"/>
<path d="M137.5 456.008C138.995 456.008 140.127 456.639 140.896 457.9C141.679 459.147 142.07 460.962 142.07 463.345C142.07 465.728 141.679 467.549 140.896 468.81C140.127 470.071 138.995 470.701 137.5 470.701C136.019 470.701 134.887 470.071 134.104 468.81C133.321 467.549 132.93 465.728 132.93 463.345C132.93 460.975 133.321 459.16 134.104 457.9C134.887 456.639 136.019 456.008 137.5 456.008ZM134.419 463.345C134.419 465.035 134.572 466.358 134.88 467.314L139.533 458.107C139.044 457.456 138.366 457.131 137.5 457.131C136.536 457.131 135.781 457.643 135.236 458.669C134.691 459.68 134.419 461.239 134.419 463.345ZM137.5 469.558C138.478 469.558 139.24 469.053 139.785 468.041C140.33 467.016 140.602 465.451 140.602 463.345C140.602 461.557 140.428 460.172 140.078 459.188L135.425 468.478C135.928 469.198 136.62 469.558 137.5 469.558Z" fill="url(#paint39_linear_122_130)" fill-opacity="0.6"/>
<path d="M138.758 493.143H141.839V494.245H133.853V493.143H137.416V481.464L134.02 483.48L133.433 482.544L137.626 479.967H138.758V493.143Z" fill="url(#paint40_linear_122_130)" fill-opacity="0.6"/>
<path d="M137.5 503.511C138.995 503.511 140.127 504.141 140.896 505.402C141.679 506.649 142.07 508.464 142.07 510.847C142.07 513.23 141.679 515.052 140.896 516.312C140.127 517.573 138.995 518.204 137.5 518.204C136.019 518.204 134.887 517.573 134.104 516.312C133.321 515.052 132.93 513.23 132.93 510.847C132.93 508.478 133.321 506.663 134.104 505.402C134.887 504.141 136.019 503.511 137.5 503.511ZM134.419 510.847C134.419 512.537 134.572 513.86 134.88 514.816L139.533 505.61C139.044 504.958 138.366 504.633 137.5 504.633C136.536 504.633 135.781 505.145 135.236 506.171C134.691 507.182 134.419 508.741 134.419 510.847ZM137.5 517.061C138.478 517.061 139.24 516.555 139.785 515.543C140.33 514.518 140.602 512.953 140.602 510.847C140.602 509.059 140.428 507.674 140.078 506.69L135.425 515.98C135.928 516.7 136.62 517.061 137.5 517.061Z" fill="url(#paint41_linear_122_130)" fill-opacity="0.6"/>
<path d="M176.43 289.751C177.926 289.751 179.057 290.381 179.826 291.642C180.609 292.889 181 294.704 181 297.087C181 299.47 180.609 301.292 179.826 302.553C179.057 303.814 177.926 304.444 176.43 304.444C174.949 304.444 173.817 303.814 173.034 302.553C172.252 301.292 171.86 299.47 171.86 297.087C171.86 294.718 172.252 292.903 173.034 291.642C173.817 290.381 174.949 289.751 176.43 289.751ZM173.349 297.087C173.349 298.777 173.502 300.101 173.81 301.057L178.464 291.85C177.974 291.199 177.297 290.873 176.43 290.873C175.466 290.873 174.711 291.386 174.166 292.411C173.621 293.423 173.349 294.981 173.349 297.087ZM176.43 303.301C177.408 303.301 178.17 302.795 178.715 301.784C179.26 300.759 179.533 299.193 179.533 297.087C179.533 295.3 179.358 293.914 179.009 292.931L174.355 302.22C174.858 302.941 175.55 303.301 176.43 303.301Z" fill="url(#paint42_linear_122_130)" fill-opacity="0.6"/>
<path d="M177.688 326.886H180.769V327.987H172.783V326.886H176.346V315.206L172.95 317.222L172.363 316.287L176.556 313.71H177.688V326.886Z" fill="url(#paint43_linear_122_130)" fill-opacity="0.6"/>
<path d="M177.688 350.637H180.769V351.738H172.783V350.637H176.346V338.957L172.95 340.973L172.363 340.038L176.556 337.461H177.688V350.637Z" fill="url(#paint44_linear_122_130)" fill-opacity="0.6"/>
<path d="M176.43 361.004C177.926 361.004 179.057 361.635 179.826 362.895C180.609 364.142 181 365.957 181 368.34C181 370.723 180.609 372.545 179.826 373.806C179.057 375.067 177.926 375.697 176.43 375.697C174.949 375.697 173.817 375.067 173.034 373.806C172.252 372.545 171.86 370.723 171.86 368.34C171.86 365.971 172.252 364.156 173.034 362.895C173.817 361.635 174.949 361.004 176.43 361.004ZM173.349 368.34C173.349 370.031 173.502 371.354 173.81 372.31L178.464 363.103C177.974 362.452 177.297 362.126 176.43 362.126C175.466 362.126 174.711 362.639 174.166 363.664C173.621 364.676 173.349 366.234 173.349 368.34ZM176.43 374.554C177.408 374.554 178.17 374.049 178.715 373.037C179.26 372.012 179.533 370.446 179.533 368.34C179.533 366.553 179.358 365.168 179.009 364.184L174.355 373.474C174.858 374.194 175.55 374.554 176.43 374.554Z" fill="url(#paint45_linear_122_130)" fill-opacity="0.6"/>
<path d="M176.43 384.755C177.926 384.755 179.057 385.386 179.826 386.646C180.609 387.893 181 389.708 181 392.091C181 394.474 180.609 396.296 179.826 397.557C179.057 398.818 177.926 399.448 176.43 399.448C174.949 399.448 173.817 398.818 173.034 397.557C172.252 396.296 171.86 394.474 171.86 392.091C171.86 389.722 172.252 387.907 173.034 386.646C173.817 385.386 174.949 384.755 176.43 384.755ZM173.349 392.091C173.349 393.782 173.502 395.105 173.81 396.061L178.464 386.854C177.974 386.203 177.297 385.878 176.43 385.878C175.466 385.878 174.711 386.39 174.166 387.415C173.621 388.427 173.349 389.985 173.349 392.091ZM176.43 398.305C177.408 398.305 178.17 397.8 178.715 396.788C179.26 395.763 179.533 394.197 179.533 392.091C179.533 390.304 179.358 388.919 179.009 387.935L174.355 397.225C174.858 397.945 175.55 398.305 176.43 398.305Z" fill="url(#paint46_linear_122_130)" fill-opacity="0.6"/>
<g opacity="0.6">
<path d="M1004.93 -34C1006.36 -34 1007.44 -33.395 1008.17 -32.1851C1008.92 -30.9885 1009.29 -29.2468 1009.29 -26.9599C1009.29 -24.673 1008.92 -22.9246 1008.17 -21.7147C1007.44 -20.5048 1006.36 -19.8998 1004.93 -19.8998C1003.52 -19.8998 1002.44 -20.5048 1001.69 -21.7147C1000.94 -22.9246 1000.57 -24.673 1000.57 -26.9599C1000.57 -29.2335 1000.94 -30.9752 1001.69 -32.1851C1002.44 -33.395 1003.52 -34 1004.93 -34ZM1001.99 -26.9599C1001.99 -25.3378 1002.14 -24.068 1002.43 -23.1506L1006.87 -31.9857C1006.4 -32.6106 1005.76 -32.923 1004.93 -32.923C1004.01 -32.923 1003.29 -32.4311 1002.77 -31.4472C1002.25 -30.4766 1001.99 -28.9808 1001.99 -26.9599ZM1004.93 -20.9967C1005.86 -20.9967 1006.59 -21.482 1007.11 -22.4526C1007.63 -23.4365 1007.89 -24.9389 1007.89 -26.9599C1007.89 -28.675 1007.72 -30.0046 1007.39 -30.9486L1002.95 -22.0338C1003.43 -21.3424 1004.09 -20.9967 1004.93 -20.9967Z" fill="url(#paint47_linear_122_130)"/>
<path d="M1006.13 1.63655H1009.07V2.69356H1001.45V1.63655H1004.85V-9.57181L1001.61 -7.63727L1001.05 -8.53474L1005.05 -11.0078H1006.13V1.63655Z" fill="url(#paint48_linear_122_130)"/>
<path d="M1004.93 11.5856C1006.36 11.5856 1007.44 12.1906 1008.17 13.4005C1008.92 14.5971 1009.29 16.3389 1009.29 18.6257C1009.29 20.9126 1008.92 22.661 1008.17 23.8709C1007.44 25.0808 1006.36 25.6858 1004.93 25.6858C1003.52 25.6858 1002.44 25.0808 1001.69 23.8709C1000.94 22.661 1000.57 20.9126 1000.57 18.6257C1000.57 16.3521 1000.94 14.6104 1001.69 13.4005C1002.44 12.1906 1003.52 11.5856 1004.93 11.5856ZM1001.99 18.6257C1001.99 20.2478 1002.14 21.5176 1002.43 22.435L1006.87 13.5999C1006.4 12.975 1005.76 12.6626 1004.93 12.6626C1004.01 12.6626 1003.29 13.1545 1002.77 14.1384C1002.25 15.109 1001.99 16.6048 1001.99 18.6257ZM1004.93 24.5889C1005.86 24.5889 1006.59 24.1036 1007.11 23.133C1007.63 22.1491 1007.89 20.6467 1007.89 18.6257C1007.89 16.9106 1007.72 15.581 1007.39 14.637L1002.95 23.5518C1003.43 24.2432 1004.09 24.5889 1004.93 24.5889Z" fill="url(#paint49_linear_122_130)"/>
<path d="M1006.13 47.2221H1009.07V48.2792H1001.45V47.2221H1004.85V36.0138L1001.61 37.9483L1001.05 37.0509L1005.05 34.5778H1006.13V47.2221Z" fill="url(#paint50_linear_122_130)"/>
<path d="M1006.13 70.015H1009.07V71.072H1001.45V70.015H1004.85V58.8066L1001.61 60.7411L1001.05 59.8437L1005.05 57.3706H1006.13V70.015Z" fill="url(#paint51_linear_122_130)"/>
<path d="M1004.93 79.964C1006.36 79.964 1007.44 80.569 1008.17 81.7789C1008.92 82.9755 1009.29 84.7173 1009.29 87.0041C1009.29 89.291 1008.92 91.0394 1008.17 92.2493C1007.44 93.4593 1006.36 94.0642 1004.93 94.0642C1003.52 94.0642 1002.44 93.4593 1001.69 92.2493C1000.94 91.0394 1000.57 89.291 1000.57 87.0041C1000.57 84.7306 1000.94 82.9888 1001.69 81.7789C1002.44 80.569 1003.52 79.964 1004.93 79.964ZM1001.99 87.0041C1001.99 88.6262 1002.14 89.896 1002.43 90.8134L1006.87 81.9783C1006.4 81.3534 1005.76 81.041 1004.93 81.041C1004.01 81.041 1003.29 81.5329 1002.77 82.5168C1002.25 83.4874 1001.99 84.9832 1001.99 87.0041ZM1004.93 92.9673C1005.86 92.9673 1006.59 92.482 1007.11 91.5114C1007.63 90.5275 1007.89 89.0251 1007.89 87.0041C1007.89 85.289 1007.72 83.9594 1007.39 83.0154L1002.95 91.9302C1003.43 92.6216 1004.09 92.9673 1004.93 92.9673Z" fill="url(#paint52_linear_122_130)"/>
<path d="M1006.13 115.601H1009.07V116.658H1001.45V115.601H1004.85V104.392L1001.61 106.327L1001.05 105.429L1005.05 102.956H1006.13V115.601Z" fill="url(#paint53_linear_122_130)"/>
<path d="M1004.93 125.55C1006.36 125.55 1007.44 126.155 1008.17 127.365C1008.92 128.561 1009.29 130.303 1009.29 132.59C1009.29 134.877 1008.92 136.625 1008.17 137.835C1007.44 139.045 1006.36 139.65 1004.93 139.65C1003.52 139.65 1002.44 139.045 1001.69 137.835C1000.94 136.625 1000.57 134.877 1000.57 132.59C1000.57 130.316 1000.94 128.574 1001.69 127.365C1002.44 126.155 1003.52 125.55 1004.93 125.55ZM1001.99 132.59C1001.99 134.212 1002.14 135.482 1002.43 136.399L1006.87 127.564C1006.4 126.939 1005.76 126.627 1004.93 126.627C1004.01 126.627 1003.29 127.119 1002.77 128.102C1002.25 129.073 1001.99 130.569 1001.99 132.59ZM1004.93 138.553C1005.86 138.553 1006.59 138.068 1007.11 137.097C1007.63 136.113 1007.89 134.611 1007.89 132.59C1007.89 130.875 1007.72 129.545 1007.39 128.601L1002.95 137.516C1003.43 138.207 1004.09 138.553 1004.93 138.553Z" fill="url(#paint54_linear_122_130)"/>
<path d="M1004.93 148.342C1006.36 148.342 1007.44 148.947 1008.17 150.157C1008.92 151.354 1009.29 153.096 1009.29 155.383C1009.29 157.669 1008.92 159.418 1008.17 160.628C1007.44 161.838 1006.36 162.443 1004.93 162.443C1003.52 162.443 1002.44 161.838 1001.69 160.628C1000.94 159.418 1000.57 157.669 1000.57 155.383C1000.57 153.109 1000.94 151.367 1001.69 150.157C1002.44 148.947 1003.52 148.342 1004.93 148.342ZM1001.99 155.383C1001.99 157.005 1002.14 158.274 1002.43 159.192L1006.87 150.357C1006.4 149.732 1005.76 149.419 1004.93 149.419C1004.01 149.419 1003.29 149.911 1002.77 150.895C1002.25 151.866 1001.99 153.362 1001.99 155.383ZM1004.93 161.346C1005.86 161.346 1006.59 160.86 1007.11 159.89C1007.63 158.906 1007.89 157.404 1007.89 155.383C1007.89 153.667 1007.72 152.338 1007.39 151.394L1002.95 160.309C1003.43 161 1004.09 161.346 1004.93 161.346Z" fill="url(#paint55_linear_122_130)"/>
<path d="M1006.13 183.979H1009.07V185.036H1001.45V183.979H1004.85V172.771L1001.61 174.705L1001.05 173.808L1005.05 171.335H1006.13V183.979Z" fill="url(#paint56_linear_122_130)"/>
<path d="M1004.93 193.928C1006.36 193.928 1007.44 194.533 1008.17 195.743C1008.92 196.94 1009.29 198.681 1009.29 200.968C1009.29 203.255 1008.92 205.003 1008.17 206.213C1007.44 207.423 1006.36 208.028 1004.93 208.028C1003.52 208.028 1002.44 207.423 1001.69 206.213C1000.94 205.003 1000.57 203.255 1000.57 200.968C1000.57 198.695 1000.94 196.953 1001.69 195.743C1002.44 194.533 1003.52 193.928 1004.93 193.928ZM1001.99 200.968C1001.99 202.59 1002.14 203.86 1002.43 204.777L1006.87 195.942C1006.4 195.317 1005.76 195.005 1004.93 195.005C1004.01 195.005 1003.29 195.497 1002.77 196.481C1002.25 197.451 1001.99 198.947 1001.99 200.968ZM1004.93 206.931C1005.86 206.931 1006.59 206.446 1007.11 205.475C1007.63 204.492 1007.89 202.989 1007.89 200.968C1007.89 199.253 1007.72 197.923 1007.39 196.979L1002.95 205.894C1003.43 206.586 1004.09 206.931 1004.93 206.931Z" fill="url(#paint57_linear_122_130)"/>
<path d="M1006.13 229.565H1009.07V230.622H1001.45V229.565H1004.85V218.356L1001.61 220.291L1001.05 219.393L1005.05 216.92H1006.13V229.565Z" fill="url(#paint58_linear_122_130)"/>
<path d="M1006.13 252.357H1009.07V253.414H1001.45V252.357H1004.85V241.149L1001.61 243.084L1001.05 242.186L1005.05 239.713H1006.13V252.357Z" fill="url(#paint59_linear_122_130)"/>
<path d="M1042.07 11.5856C1043.5 11.5856 1044.58 12.1906 1045.31 13.4005C1046.06 14.5971 1046.43 16.3389 1046.43 18.6257C1046.43 20.9126 1046.06 22.661 1045.31 23.8709C1044.58 25.0808 1043.5 25.6858 1042.07 25.6858C1040.66 25.6858 1039.58 25.0808 1038.83 23.8709C1038.08 22.661 1037.71 20.9126 1037.71 18.6257C1037.71 16.3521 1038.08 14.6104 1038.83 13.4005C1039.58 12.1906 1040.66 11.5856 1042.07 11.5856ZM1039.13 18.6257C1039.13 20.2478 1039.28 21.5176 1039.57 22.435L1044.01 13.5999C1043.54 12.975 1042.9 12.6626 1042.07 12.6626C1041.15 12.6626 1040.43 13.1545 1039.91 14.1384C1039.39 15.109 1039.13 16.6048 1039.13 18.6257ZM1042.07 24.5889C1043 24.5889 1043.73 24.1036 1044.25 23.133C1044.77 22.1491 1045.03 20.6467 1045.03 18.6257C1045.03 16.9106 1044.86 15.581 1044.53 14.637L1040.09 23.5518C1040.57 24.2432 1041.23 24.5889 1042.07 24.5889Z" fill="url(#paint60_linear_122_130)"/>
<path d="M1043.27 47.2221H1046.21V48.2792H1038.59V47.2221H1041.99V36.0138L1038.75 37.9483L1038.19 37.0509L1042.19 34.5778H1043.27V47.2221Z" fill="url(#paint61_linear_122_130)"/>
<path d="M1042.07 57.1712C1043.5 57.1712 1044.58 57.7762 1045.31 58.9861C1046.06 60.1827 1046.43 61.9245 1046.43 64.2113C1046.43 66.4982 1046.06 68.2466 1045.31 69.4565C1044.58 70.6665 1043.5 71.2714 1042.07 71.2714C1040.66 71.2714 1039.58 70.6665 1038.83 69.4565C1038.08 68.2466 1037.71 66.4982 1037.71 64.2113C1037.71 61.9378 1038.08 60.196 1038.83 58.9861C1039.58 57.7762 1040.66 57.1712 1042.07 57.1712ZM1039.13 64.2113C1039.13 65.8334 1039.28 67.1032 1039.57 68.0206L1044.01 59.1855C1043.54 58.5606 1042.9 58.2482 1042.07 58.2482C1041.15 58.2482 1040.43 58.7401 1039.91 59.724C1039.39 60.6946 1039.13 62.1904 1039.13 64.2113ZM1042.07 70.1745C1043 70.1745 1043.73 69.6892 1044.25 68.7186C1044.77 67.7347 1045.03 66.2323 1045.03 64.2113C1045.03 62.4962 1044.86 61.1666 1044.53 60.2226L1040.09 69.1374C1040.57 69.8288 1041.23 70.1745 1042.07 70.1745Z" fill="url(#paint62_linear_122_130)"/>
<path d="M1042.07 79.964C1043.5 79.964 1044.58 80.569 1045.31 81.7789C1046.06 82.9755 1046.43 84.7173 1046.43 87.0041C1046.43 89.291 1046.06 91.0394 1045.31 92.2493C1044.58 93.4593 1043.5 94.0642 1042.07 94.0642C1040.66 94.0642 1039.58 93.4593 1038.83 92.2493C1038.08 91.0394 1037.71 89.291 1037.71 87.0041C1037.71 84.7306 1038.08 82.9888 1038.83 81.7789C1039.58 80.569 1040.66 79.964 1042.07 79.964ZM1039.13 87.0041C1039.13 88.6262 1039.28 89.896 1039.57 90.8134L1044.01 81.9783C1043.54 81.3534 1042.9 81.041 1042.07 81.041C1041.15 81.041 1040.43 81.5329 1039.91 82.5168C1039.39 83.4874 1039.13 84.9832 1039.13 87.0041ZM1042.07 92.9673C1043 92.9673 1043.73 92.482 1044.25 91.5114C1044.77 90.5275 1045.03 89.0251 1045.03 87.0041C1045.03 85.289 1044.86 83.9594 1044.53 83.0154L1040.09 91.9302C1040.57 92.6216 1041.23 92.9673 1042.07 92.9673Z" fill="url(#paint63_linear_122_130)"/>
<path d="M1043.27 115.601H1046.21V116.658H1038.59V115.601H1041.99V104.392L1038.75 106.327L1038.19 105.429L1042.19 102.956H1043.27V115.601Z" fill="url(#paint64_linear_122_130)"/>
<path d="M1042.07 125.55C1043.5 125.55 1044.58 126.155 1045.31 127.365C1046.06 128.561 1046.43 130.303 1046.43 132.59C1046.43 134.877 1046.06 136.625 1045.31 137.835C1044.58 139.045 1043.5 139.65 1042.07 139.65C1040.66 139.65 1039.58 139.045 1038.83 137.835C1038.08 136.625 1037.71 134.877 1037.71 132.59C1037.71 130.316 1038.08 128.574 1038.83 127.365C1039.58 126.155 1040.66 125.55 1042.07 125.55ZM1039.13 132.59C1039.13 134.212 1039.28 135.482 1039.57 136.399L1044.01 127.564C1043.54 126.939 1042.9 126.627 1042.07 126.627C1041.15 126.627 1040.43 127.119 1039.91 128.102C1039.39 129.073 1039.13 130.569 1039.13 132.59ZM1042.07 138.553C1043 138.553 1043.73 138.068 1044.25 137.097C1044.77 136.113 1045.03 134.611 1045.03 132.59C1045.03 130.875 1044.86 129.545 1044.53 128.601L1040.09 137.516C1040.57 138.207 1041.23 138.553 1042.07 138.553Z" fill="url(#paint65_linear_122_130)"/>
<path d="M1043.27 161.186H1046.21V162.243H1038.59V161.186H1041.99V149.978L1038.75 151.912L1038.19 151.015L1042.19 148.542H1043.27V161.186Z" fill="url(#paint66_linear_122_130)"/>
<path d="M1042.07 171.135C1043.5 171.135 1044.58 171.74 1045.31 172.95C1046.06 174.147 1046.43 175.888 1046.43 178.175C1046.43 180.462 1046.06 182.211 1045.31 183.421C1044.58 184.63 1043.5 185.235 1042.07 185.235C1040.66 185.235 1039.58 184.63 1038.83 183.421C1038.08 182.211 1037.71 180.462 1037.71 178.175C1037.71 175.902 1038.08 174.16 1038.83 172.95C1039.58 171.74 1040.66 171.135 1042.07 171.135ZM1039.13 178.175C1039.13 179.797 1039.28 181.067 1039.57 181.985L1044.01 173.15C1043.54 172.525 1042.9 172.212 1042.07 172.212C1041.15 172.212 1040.43 172.704 1039.91 173.688C1039.39 174.659 1039.13 176.154 1039.13 178.175ZM1042.07 184.139C1043 184.139 1043.73 183.653 1044.25 182.683C1044.77 181.699 1045.03 180.196 1045.03 178.175C1045.03 176.46 1044.86 175.131 1044.53 174.187L1040.09 183.101C1040.57 183.793 1041.23 184.139 1042.07 184.139Z" fill="url(#paint67_linear_122_130)"/>
<path d="M1042.07 193.928C1043.5 193.928 1044.58 194.533 1045.31 195.743C1046.06 196.94 1046.43 198.681 1046.43 200.968C1046.43 203.255 1046.06 205.003 1045.31 206.213C1044.58 207.423 1043.5 208.028 1042.07 208.028C1040.66 208.028 1039.58 207.423 1038.83 206.213C1038.08 205.003 1037.71 203.255 1037.71 200.968C1037.71 198.695 1038.08 196.953 1038.83 195.743C1039.58 194.533 1040.66 193.928 1042.07 193.928ZM1039.13 200.968C1039.13 202.59 1039.28 203.86 1039.57 204.777L1044.01 195.942C1043.54 195.317 1042.9 195.005 1042.07 195.005C1041.15 195.005 1040.43 195.497 1039.91 196.481C1039.39 197.451 1039.13 198.947 1039.13 200.968ZM1042.07 206.931C1043 206.931 1043.73 206.446 1044.25 205.475C1044.77 204.492 1045.03 202.989 1045.03 200.968C1045.03 199.253 1044.86 197.923 1044.53 196.979L1040.09 205.894C1040.57 206.586 1041.23 206.931 1042.07 206.931Z" fill="url(#paint68_linear_122_130)"/>
<path d="M1043.27 229.565H1046.21V230.622H1038.59V229.565H1041.99V218.356L1038.75 220.291L1038.19 219.393L1042.19 216.92H1043.27V229.565Z" fill="url(#paint69_linear_122_130)"/>
<path d="M1042.07 239.514C1043.5 239.514 1044.58 240.119 1045.31 241.329C1046.06 242.525 1046.43 244.267 1046.43 246.554C1046.43 248.841 1046.06 250.589 1045.31 251.799C1044.58 253.009 1043.5 253.614 1042.07 253.614C1040.66 253.614 1039.58 253.009 1038.83 251.799C1038.08 250.589 1037.71 248.841 1037.71 246.554C1037.71 244.28 1038.08 242.538 1038.83 241.329C1039.58 240.119 1040.66 239.514 1042.07 239.514ZM1039.13 246.554C1039.13 248.176 1039.28 249.446 1039.57 250.363L1044.01 241.528C1043.54 240.903 1042.9 240.591 1042.07 240.591C1041.15 240.591 1040.43 241.083 1039.91 242.066C1039.39 243.037 1039.13 244.533 1039.13 246.554ZM1042.07 252.517C1043 252.517 1043.73 252.032 1044.25 251.061C1044.77 250.077 1045.03 248.575 1045.03 246.554C1045.03 244.839 1044.86 243.509 1044.53 242.565L1040.09 251.48C1040.57 252.171 1041.23 252.517 1042.07 252.517Z" fill="url(#paint70_linear_122_130)"/>
<path d="M1043.27 275.15H1046.21V276.207H1038.59V275.15H1041.99V263.942L1038.75 265.876L1038.19 264.979L1042.19 262.506H1043.27V275.15Z" fill="url(#paint71_linear_122_130)"/>
<path d="M1043.27 297.943H1046.21V299H1038.59V297.943H1041.99V286.735L1038.75 288.669L1038.19 287.772L1042.19 285.299H1043.27V297.943Z" fill="url(#paint72_linear_122_130)"/>
<path d="M986.36 34.3784C987.786 34.3784 988.866 34.9834 989.599 36.1933C990.346 37.3899 990.719 39.1317 990.719 41.4185C990.719 43.7054 990.346 45.4538 989.599 46.6637C988.866 47.8736 987.786 48.4786 986.36 48.4786C984.946 48.4786 983.867 47.8736 983.12 46.6637C982.373 45.4538 982 43.7054 982 41.4185C982 39.145 982.373 37.4032 983.12 36.1933C983.867 34.9834 984.946 34.3784 986.36 34.3784ZM983.42 41.4185C983.42 43.0406 983.567 44.3104 983.86 45.2278L988.3 36.3927C987.833 35.7678 987.186 35.4554 986.36 35.4554C985.44 35.4554 984.72 35.9473 984.2 36.9312C983.68 37.9018 983.42 39.3976 983.42 41.4185ZM986.36 47.3817C987.293 47.3817 988.02 46.8964 988.54 45.9258C989.06 44.9419 989.319 43.4395 989.319 41.4185C989.319 39.7034 989.153 38.3738 988.82 37.4298L984.38 46.3446C984.86 47.036 985.52 47.3817 986.36 47.3817Z" fill="url(#paint73_linear_122_130)"/>
<path d="M986.36 57.1712C987.786 57.1712 988.866 57.7762 989.599 58.9861C990.346 60.1827 990.719 61.9245 990.719 64.2113C990.719 66.4982 990.346 68.2466 989.599 69.4565C988.866 70.6665 987.786 71.2714 986.36 71.2714C984.946 71.2714 983.867 70.6665 983.12 69.4565C982.373 68.2466 982 66.4982 982 64.2113C982 61.9378 982.373 60.196 983.12 58.9861C983.867 57.7762 984.946 57.1712 986.36 57.1712ZM983.42 64.2113C983.42 65.8334 983.567 67.1032 983.86 68.0206L988.3 59.1855C987.833 58.5606 987.186 58.2482 986.36 58.2482C985.44 58.2482 984.72 58.7401 984.2 59.724C983.68 60.6946 983.42 62.1904 983.42 64.2113ZM986.36 70.1745C987.293 70.1745 988.02 69.6892 988.54 68.7186C989.06 67.7347 989.319 66.2323 989.319 64.2113C989.319 62.4962 989.153 61.1666 988.82 60.2226L984.38 69.1374C984.86 69.8288 985.52 70.1745 986.36 70.1745Z" fill="url(#paint74_linear_122_130)"/>
<path d="M987.56 92.8078H990.499V93.8648H982.88V92.8078H986.28V81.5994L983.04 83.5339L982.48 82.6365L986.48 80.1635H987.56V92.8078Z" fill="url(#paint75_linear_122_130)"/>
<path d="M986.36 102.757C987.786 102.757 988.866 103.362 989.599 104.572C990.346 105.768 990.719 107.51 990.719 109.797C990.719 112.084 990.346 113.832 989.599 115.042C988.866 116.252 987.786 116.857 986.36 116.857C984.946 116.857 983.867 116.252 983.12 115.042C982.373 113.832 982 112.084 982 109.797C982 107.523 982.373 105.782 983.12 104.572C983.867 103.362 984.946 102.757 986.36 102.757ZM983.42 109.797C983.42 111.419 983.567 112.689 983.86 113.606L988.3 104.771C987.833 104.146 987.186 103.834 986.36 103.834C985.44 103.834 984.72 104.326 984.2 105.31C983.68 106.28 983.42 107.776 983.42 109.797ZM986.36 115.76C987.293 115.76 988.02 115.275 988.54 114.304C989.06 113.32 989.319 111.818 989.319 109.797C989.319 108.082 989.153 106.752 988.82 105.808L984.38 114.723C984.86 115.414 985.52 115.76 986.36 115.76Z" fill="url(#paint76_linear_122_130)"/>
<path d="M987.56 138.393H990.499V139.45H982.88V138.393H986.28V127.185L983.04 129.12L982.48 128.222L986.48 125.749H987.56V138.393Z" fill="url(#paint77_linear_122_130)"/>
<path d="M987.56 161.186H990.499V162.243H982.88V161.186H986.28V149.978L983.04 151.912L982.48 151.015L986.48 148.542H987.56V161.186Z" fill="url(#paint78_linear_122_130)"/>
<path d="M1024.7 1.63655H1027.64V2.69356H1020.02V1.63655H1023.42V-9.57181L1020.18 -7.63727L1019.62 -8.53474L1023.62 -11.0078H1024.7V1.63655Z" fill="url(#paint79_linear_122_130)"/>
<path d="M1023.5 11.5856C1024.93 11.5856 1026.01 12.1906 1026.74 13.4005C1027.49 14.5971 1027.86 16.3389 1027.86 18.6257C1027.86 20.9126 1027.49 22.661 1026.74 23.8709C1026.01 25.0808 1024.93 25.6858 1023.5 25.6858C1022.09 25.6858 1021.01 25.0808 1020.26 23.8709C1019.51 22.661 1019.14 20.9126 1019.14 18.6257C1019.14 16.3521 1019.51 14.6104 1020.26 13.4005C1021.01 12.1906 1022.09 11.5856 1023.5 11.5856ZM1020.56 18.6257C1020.56 20.2478 1020.71 21.5176 1021 22.435L1025.44 13.5999C1024.97 12.975 1024.33 12.6626 1023.5 12.6626C1022.58 12.6626 1021.86 13.1545 1021.34 14.1384C1020.82 15.109 1020.56 16.6048 1020.56 18.6257ZM1023.5 24.5889C1024.43 24.5889 1025.16 24.1036 1025.68 23.133C1026.2 22.1491 1026.46 20.6467 1026.46 18.6257C1026.46 16.9106 1026.29 15.581 1025.96 14.637L1021.52 23.5518C1022 24.2432 1022.66 24.5889 1023.5 24.5889Z" fill="url(#paint80_linear_122_130)"/>
<path d="M1024.7 47.2221H1027.64V48.2792H1020.02V47.2221H1023.42V36.0138L1020.18 37.9483L1019.62 37.0509L1023.62 34.5778H1024.7V47.2221Z" fill="url(#paint81_linear_122_130)"/>
<path d="M1024.7 70.015H1027.64V71.072H1020.02V70.015H1023.42V58.8066L1020.18 60.7411L1019.62 59.8437L1023.62 57.3706H1024.7V70.015Z" fill="url(#paint82_linear_122_130)"/>
<path d="M1023.5 79.964C1024.93 79.964 1026.01 80.569 1026.74 81.7789C1027.49 82.9755 1027.86 84.7173 1027.86 87.0041C1027.86 89.291 1027.49 91.0394 1026.74 92.2493C1026.01 93.4593 1024.93 94.0642 1023.5 94.0642C1022.09 94.0642 1021.01 93.4593 1020.26 92.2493C1019.51 91.0394 1019.14 89.291 1019.14 87.0041C1019.14 84.7306 1019.51 82.9888 1020.26 81.7789C1021.01 80.569 1022.09 79.964 1023.5 79.964ZM1020.56 87.0041C1020.56 88.6262 1020.71 89.896 1021 90.8134L1025.44 81.9783C1024.97 81.3534 1024.33 81.041 1023.5 81.041C1022.58 81.041 1021.86 81.5329 1021.34 82.5168C1020.82 83.4874 1020.56 84.9832 1020.56 87.0041ZM1023.5 92.9673C1024.43 92.9673 1025.16 92.482 1025.68 91.5114C1026.2 90.5275 1026.46 89.0251 1026.46 87.0041C1026.46 85.289 1026.29 83.9594 1025.96 83.0154L1021.52 91.9302C1022 92.6216 1022.66 92.9673 1023.5 92.9673Z" fill="url(#paint83_linear_122_130)"/>
<path d="M1024.7 115.601H1027.64V116.658H1020.02V115.601H1023.42V104.392L1020.18 106.327L1019.62 105.429L1023.62 102.956H1024.7V115.601Z" fill="url(#paint84_linear_122_130)"/>
<path d="M1024.7 138.393H1027.64V139.45H1020.02V138.393H1023.42V127.185L1020.18 129.12L1019.62 128.222L1023.62 125.749H1024.7V138.393Z" fill="url(#paint85_linear_122_130)"/>
<path d="M1023.5 148.342C1024.93 148.342 1026.01 148.947 1026.74 150.157C1027.49 151.354 1027.86 153.096 1027.86 155.383C1027.86 157.669 1027.49 159.418 1026.74 160.628C1026.01 161.838 1024.93 162.443 1023.5 162.443C1022.09 162.443 1021.01 161.838 1020.26 160.628C1019.51 159.418 1019.14 157.669 1019.14 155.383C1019.14 153.109 1019.51 151.367 1020.26 150.157C1021.01 148.947 1022.09 148.342 1023.5 148.342ZM1020.56 155.383C1020.56 157.005 1020.71 158.274 1021 159.192L1025.44 150.357C1024.97 149.732 1024.33 149.419 1023.5 149.419C1022.58 149.419 1021.86 149.911 1021.34 150.895C1020.82 151.866 1020.56 153.362 1020.56 155.383ZM1023.5 161.346C1024.43 161.346 1025.16 160.86 1025.68 159.89C1026.2 158.906 1026.46 157.404 1026.46 155.383C1026.46 153.667 1026.29 152.338 1025.96 151.394L1021.52 160.309C1022 161 1022.66 161.346 1023.5 161.346Z" fill="url(#paint86_linear_122_130)"/>
<path d="M1024.7 183.979H1027.64V185.036H1020.02V183.979H1023.42V172.771L1020.18 174.705L1019.62 173.808L1023.62 171.335H1024.7V183.979Z" fill="url(#paint87_linear_122_130)"/>
<path d="M1023.5 193.928C1024.93 193.928 1026.01 194.533 1026.74 195.743C1027.49 196.94 1027.86 198.681 1027.86 200.968C1027.86 203.255 1027.49 205.003 1026.74 206.213C1026.01 207.423 1024.93 208.028 1023.5 208.028C1022.09 208.028 1021.01 207.423 1020.26 206.213C1019.51 205.003 1019.14 203.255 1019.14 200.968C1019.14 198.695 1019.51 196.953 1020.26 195.743C1021.01 194.533 1022.09 193.928 1023.5 193.928ZM1020.56 200.968C1020.56 202.59 1020.71 203.86 1021 204.777L1025.44 195.942C1024.97 195.317 1024.33 195.005 1023.5 195.005C1022.58 195.005 1021.86 195.497 1021.34 196.481C1020.82 197.451 1020.56 198.947 1020.56 200.968ZM1023.5 206.931C1024.43 206.931 1025.16 206.446 1025.68 205.475C1026.2 204.492 1026.46 202.989 1026.46 200.968C1026.46 199.253 1026.29 197.923 1025.96 196.979L1021.52 205.894C1022 206.586 1022.66 206.931 1023.5 206.931Z" fill="url(#paint88_linear_122_130)"/>
<path d="M1060.64 -11.2072C1062.07 -11.2072 1063.15 -10.6022 1063.88 -9.39232C1064.63 -8.1957 1065 -6.45395 1065 -4.16707C1065 -1.8802 1064.63 -0.131794 1063.88 1.07812C1063.15 2.28804 1062.07 2.893 1060.64 2.893C1059.23 2.893 1058.15 2.28804 1057.4 1.07812C1056.65 -0.131794 1056.28 -1.8802 1056.28 -4.16707C1056.28 -6.44065 1056.65 -8.1824 1057.4 -9.39232C1058.15 -10.6022 1059.23 -11.2072 1060.64 -11.2072ZM1057.7 -4.16707C1057.7 -2.54498 1057.85 -1.27523 1058.14 -0.357822L1062.58 -9.19288C1062.11 -9.81779 1061.47 -10.1302 1060.64 -10.1302C1059.72 -10.1302 1059 -9.63829 1058.48 -8.6544C1057.96 -7.68381 1057.7 -6.18803 1057.7 -4.16707ZM1060.64 1.7961C1061.57 1.7961 1062.3 1.3108 1062.82 0.340206C1063.34 -0.643681 1063.6 -2.14611 1063.6 -4.16707C1063.6 -5.88223 1063.43 -7.21181 1063.1 -8.15581L1058.66 0.759022C1059.14 1.45041 1059.8 1.7961 1060.64 1.7961Z" fill="url(#paint89_linear_122_130)"/>
<path d="M1061.84 24.4293H1064.78V25.4864H1057.16V24.4293H1060.56V13.221L1057.32 15.1555L1056.76 14.2581L1060.76 11.785H1061.84V24.4293Z" fill="url(#paint90_linear_122_130)"/>
<path d="M1061.84 47.2221H1064.78V48.2792H1057.16V47.2221H1060.56V36.0138L1057.32 37.9483L1056.76 37.0509L1060.76 34.5778H1061.84V47.2221Z" fill="url(#paint91_linear_122_130)"/>
<path d="M1060.64 57.1712C1062.07 57.1712 1063.15 57.7762 1063.88 58.9861C1064.63 60.1827 1065 61.9245 1065 64.2113C1065 66.4982 1064.63 68.2466 1063.88 69.4565C1063.15 70.6665 1062.07 71.2714 1060.64 71.2714C1059.23 71.2714 1058.15 70.6665 1057.4 69.4565C1056.65 68.2466 1056.28 66.4982 1056.28 64.2113C1056.28 61.9378 1056.65 60.196 1057.4 58.9861C1058.15 57.7762 1059.23 57.1712 1060.64 57.1712ZM1057.7 64.2113C1057.7 65.8334 1057.85 67.1032 1058.14 68.0206L1062.58 59.1855C1062.11 58.5606 1061.47 58.2482 1060.64 58.2482C1059.72 58.2482 1059 58.7401 1058.48 59.724C1057.96 60.6946 1057.7 62.1904 1057.7 64.2113ZM1060.64 70.1745C1061.57 70.1745 1062.3 69.6892 1062.82 68.7186C1063.34 67.7347 1063.6 66.2323 1063.6 64.2113C1063.6 62.4962 1063.43 61.1666 1063.1 60.2226L1058.66 69.1374C1059.14 69.8288 1059.8 70.1745 1060.64 70.1745Z" fill="url(#paint92_linear_122_130)"/>
<path d="M1060.64 79.964C1062.07 79.964 1063.15 80.569 1063.88 81.7789C1064.63 82.9755 1065 84.7173 1065 87.0041C1065 89.291 1064.63 91.0394 1063.88 92.2493C1063.15 93.4593 1062.07 94.0642 1060.64 94.0642C1059.23 94.0642 1058.15 93.4593 1057.4 92.2493C1056.65 91.0394 1056.28 89.291 1056.28 87.0041C1056.28 84.7306 1056.65 82.9888 1057.4 81.7789C1058.15 80.569 1059.23 79.964 1060.64 79.964ZM1057.7 87.0041C1057.7 88.6262 1057.85 89.896 1058.14 90.8134L1062.58 81.9783C1062.11 81.3534 1061.47 81.041 1060.64 81.041C1059.72 81.041 1059 81.5329 1058.48 82.5168C1057.96 83.4874 1057.7 84.9832 1057.7 87.0041ZM1060.64 92.9673C1061.57 92.9673 1062.3 92.482 1062.82 91.5114C1063.34 90.5275 1063.6 89.0251 1063.6 87.0041C1063.6 85.289 1063.43 83.9594 1063.1 83.0154L1058.66 91.9302C1059.14 92.6216 1059.8 92.9673 1060.64 92.9673Z" fill="url(#paint93_linear_122_130)"/>
</g>
</g>
<defs>
<filter id="filter0_f_122_130" x="-473.19" y="-720.19" width="2141.38" height="1500.38" filterUnits="userSpaceOnUse" color-interpolation-filters="sRGB">
<feFlood flood-opacity="0" result="BackgroundImageFix"/>
<feBlend mode="normal" in="SourceGraphic" in2="BackgroundImageFix" result="shape"/>
<feGaussianBlur stdDeviation="200.095" result="effect1_foregroundBlur_122_130"/>
</filter>
<linearGradient id="paint0_linear_122_130" x1="137.5" y1="266" x2="137.5" y2="577.381" gradientUnits="userSpaceOnUse">
<stop stop-color="#F7DD43"/>
<stop offset="1" stop-color="#F7DD43" stop-opacity="0"/>
</linearGradient>
<linearGradient id="paint1_linear_122_130" x1="137.5" y1="266" x2="137.5" y2="577.381" gradientUnits="userSpaceOnUse">
<stop stop-color="#F7DD43"/>
<stop offset="1" stop-color="#F7DD43" stop-opacity="0"/>
</linearGradient>
<linearGradient id="paint2_linear_122_130" x1="137.5" y1="266" x2="137.5" y2="577.381" gradientUnits="userSpaceOnUse">
<stop stop-color="#F7DD43"/>
<stop offset="1" stop-color="#F7DD43" stop-opacity="0"/>
</linearGradient>
<linearGradient id="paint3_linear_122_130" x1="137.5" y1="266" x2="137.5" y2="577.381" gradientUnits="userSpaceOnUse">
<stop stop-color="#F7DD43"/>
<stop offset="1" stop-color="#F7DD43" stop-opacity="0"/>
</linearGradient>
<linearGradient id="paint4_linear_122_130" x1="137.5" y1="266" x2="137.5" y2="577.381" gradientUnits="userSpaceOnUse">
<stop stop-color="#F7DD43"/>
<stop offset="1" stop-color="#F7DD43" stop-opacity="0"/>
</linearGradient>
<linearGradient id="paint5_linear_122_130" x1="137.5" y1="266" x2="137.5" y2="577.381" gradientUnits="userSpaceOnUse">
<stop stop-color="#F7DD43"/>
<stop offset="1" stop-color="#F7DD43" stop-opacity="0"/>
</linearGradient>
<linearGradient id="paint6_linear_122_130" x1="137.5" y1="266" x2="137.5" y2="577.381" gradientUnits="userSpaceOnUse">
<stop stop-color="#F7DD43"/>
<stop offset="1" stop-color="#F7DD43" stop-opacity="0"/>
</linearGradient>
<linearGradient id="paint7_linear_122_130" x1="137.5" y1="266" x2="137.5" y2="577.381" gradientUnits="userSpaceOnUse">
<stop stop-color="#F7DD43"/>
<stop offset="1" stop-color="#F7DD43" stop-opacity="0"/>
</linearGradient>
<linearGradient id="paint8_linear_122_130" x1="137.5" y1="266" x2="137.5" y2="577.381" gradientUnits="userSpaceOnUse">
<stop stop-color="#F7DD43"/>
<stop offset="1" stop-color="#F7DD43" stop-opacity="0"/>
</linearGradient>
<linearGradient id="paint9_linear_122_130" x1="137.5" y1="266" x2="137.5" y2="577.381" gradientUnits="userSpaceOnUse">
<stop stop-color="#F7DD43"/>
<stop offset="1" stop-color="#F7DD43" stop-opacity="0"/>
</linearGradient>
<linearGradient id="paint10_linear_122_130" x1="137.5" y1="266" x2="137.5" y2="577.381" gradientUnits="userSpaceOnUse">
<stop stop-color="#F7DD43"/>
<stop offset="1" stop-color="#F7DD43" stop-opacity="0"/>
</linearGradient>
<linearGradient id="paint11_linear_122_130" x1="137.5" y1="266" x2="137.5" y2="577.381" gradientUnits="userSpaceOnUse">
<stop stop-color="#F7DD43"/>
<stop offset="1" stop-color="#F7DD43" stop-opacity="0"/>
</linearGradient>
<linearGradient id="paint12_linear_122_130" x1="137.5" y1="266" x2="137.5" y2="577.381" gradientUnits="userSpaceOnUse">
<stop stop-color="#F7DD43"/>
<stop offset="1" stop-color="#F7DD43" stop-opacity="0"/>
</linearGradient>
<linearGradient id="paint13_linear_122_130" x1="137.5" y1="266" x2="137.5" y2="577.381" gradientUnits="userSpaceOnUse">
<stop stop-color="#F7DD43"/>
<stop offset="1" stop-color="#F7DD43" stop-opacity="0"/>
</linearGradient>
<linearGradient id="paint14_linear_122_130" x1="137.5" y1="266" x2="137.5" y2="577.381" gradientUnits="userSpaceOnUse">
<stop stop-color="#F7DD43"/>
<stop offset="1" stop-color="#F7DD43" stop-opacity="0"/>
</linearGradient>
<linearGradient id="paint15_linear_122_130" x1="137.5" y1="266" x2="137.5" y2="577.381" gradientUnits="userSpaceOnUse">
<stop stop-color="#F7DD43"/>
<stop offset="1" stop-color="#F7DD43" stop-opacity="0"/>
</linearGradient>
<linearGradient id="paint16_linear_122_130" x1="137.5" y1="266" x2="137.5" y2="577.381" gradientUnits="userSpaceOnUse">
<stop stop-color="#F7DD43"/>
<stop offset="1" stop-color="#F7DD43" stop-opacity="0"/>
</linearGradient>
<linearGradient id="paint17_linear_122_130" x1="137.5" y1="266" x2="137.5" y2="577.381" gradientUnits="userSpaceOnUse">
<stop stop-color="#F7DD43"/>
<stop offset="1" stop-color="#F7DD43" stop-opacity="0"/>
</linearGradient>
<linearGradient id="paint18_linear_122_130" x1="137.5" y1="266" x2="137.5" y2="577.381" gradientUnits="userSpaceOnUse">
<stop stop-color="#F7DD43"/>
<stop offset="1" stop-color="#F7DD43" stop-opacity="0"/>
</linearGradient>
<linearGradient id="paint19_linear_122_130" x1="137.5" y1="266" x2="137.5" y2="577.381" gradientUnits="userSpaceOnUse">
<stop stop-color="#F7DD43"/>
<stop offset="1" stop-color="#F7DD43" stop-opacity="0"/>
</linearGradient>
<linearGradient id="paint20_linear_122_130" x1="137.5" y1="266" x2="137.5" y2="577.381" gradientUnits="userSpaceOnUse">
<stop stop-color="#F7DD43"/>
<stop offset="1" stop-color="#F7DD43" stop-opacity="0"/>
</linearGradient>
<linearGradient id="paint21_linear_122_130" x1="137.5" y1="266" x2="137.5" y2="577.381" gradientUnits="userSpaceOnUse">
<stop stop-color="#F7DD43"/>
<stop offset="1" stop-color="#F7DD43" stop-opacity="0"/>
</linearGradient>
<linearGradient id="paint22_linear_122_130" x1="137.5" y1="266" x2="137.5" y2="577.381" gradientUnits="userSpaceOnUse">
<stop stop-color="#F7DD43"/>
<stop offset="1" stop-color="#F7DD43" stop-opacity="0"/>
</linearGradient>
<linearGradient id="paint23_linear_122_130" x1="137.5" y1="266" x2="137.5" y2="577.381" gradientUnits="userSpaceOnUse">
<stop stop-color="#F7DD43"/>
<stop offset="1" stop-color="#F7DD43" stop-opacity="0"/>
</linearGradient>
<linearGradient id="paint24_linear_122_130" x1="137.5" y1="266" x2="137.5" y2="577.381" gradientUnits="userSpaceOnUse">
<stop stop-color="#F7DD43"/>
<stop offset="1" stop-color="#F7DD43" stop-opacity="0"/>
</linearGradient>
<linearGradient id="paint25_linear_122_130" x1="137.5" y1="266" x2="137.5" y2="577.381" gradientUnits="userSpaceOnUse">
<stop stop-color="#F7DD43"/>
<stop offset="1" stop-color="#F7DD43" stop-opacity="0"/>
</linearGradient>
<linearGradient id="paint26_linear_122_130" x1="137.5" y1="266" x2="137.5" y2="577.381" gradientUnits="userSpaceOnUse">
<stop stop-color="#F7DD43"/>
<stop offset="1" stop-color="#F7DD43" stop-opacity="0"/>
</linearGradient>
<linearGradient id="paint27_linear_122_130" x1="137.5" y1="266" x2="137.5" y2="577.381" gradientUnits="userSpaceOnUse">
<stop stop-color="#F7DD43"/>
<stop offset="1" stop-color="#F7DD43" stop-opacity="0"/>
</linearGradient>
<linearGradient id="paint28_linear_122_130" x1="137.5" y1="266" x2="137.5" y2="577.381" gradientUnits="userSpaceOnUse">
<stop stop-color="#F7DD43"/>
<stop offset="1" stop-color="#F7DD43" stop-opacity="0"/>
</linearGradient>
<linearGradient id="paint29_linear_122_130" x1="137.5" y1="266" x2="137.5" y2="577.381" gradientUnits="userSpaceOnUse">
<stop stop-color="#F7DD43"/>
<stop offset="1" stop-color="#F7DD43" stop-opacity="0"/>
</linearGradient>
<linearGradient id="paint30_linear_122_130" x1="137.5" y1="266" x2="137.5" y2="577.381" gradientUnits="userSpaceOnUse">
<stop stop-color="#F7DD43"/>
<stop offset="1" stop-color="#F7DD43" stop-opacity="0"/>
</linearGradient>
<linearGradient id="paint31_linear_122_130" x1="137.5" y1="266" x2="137.5" y2="577.381" gradientUnits="userSpaceOnUse">
<stop stop-color="#F7DD43"/>
<stop offset="1" stop-color="#F7DD43" stop-opacity="0"/>
</linearGradient>
<linearGradient id="paint32_linear_122_130" x1="137.5" y1="266" x2="137.5" y2="577.381" gradientUnits="userSpaceOnUse">
<stop stop-color="#F7DD43"/>
<stop offset="1" stop-color="#F7DD43" stop-opacity="0"/>
</linearGradient>
<linearGradient id="paint33_linear_122_130" x1="137.5" y1="266" x2="137.5" y2="577.381" gradientUnits="userSpaceOnUse">
<stop stop-color="#F7DD43"/>
<stop offset="1" stop-color="#F7DD43" stop-opacity="0"/>
</linearGradient>
<linearGradient id="paint34_linear_122_130" x1="137.5" y1="266" x2="137.5" y2="577.381" gradientUnits="userSpaceOnUse">
<stop stop-color="#F7DD43"/>
<stop offset="1" stop-color="#F7DD43" stop-opacity="0"/>
</linearGradient>
<linearGradient id="paint35_linear_122_130" x1="137.5" y1="266" x2="137.5" y2="577.381" gradientUnits="userSpaceOnUse">
<stop stop-color="#F7DD43"/>
<stop offset="1" stop-color="#F7DD43" stop-opacity="0"/>
</linearGradient>
<linearGradient id="paint36_linear_122_130" x1="137.5" y1="266" x2="137.5" y2="577.381" gradientUnits="userSpaceOnUse">
<stop stop-color="#F7DD43"/>
<stop offset="1" stop-color="#F7DD43" stop-opacity="0"/>
</linearGradient>
<linearGradient id="paint37_linear_122_130" x1="137.5" y1="266" x2="137.5" y2="577.381" gradientUnits="userSpaceOnUse">
<stop stop-color="#F7DD43"/>
<stop offset="1" stop-color="#F7DD43" stop-opacity="0"/>
</linearGradient>
<linearGradient id="paint38_linear_122_130" x1="137.5" y1="266" x2="137.5" y2="577.381" gradientUnits="userSpaceOnUse">
<stop stop-color="#F7DD43"/>
<stop offset="1" stop-color="#F7DD43" stop-opacity="0"/>
</linearGradient>
<linearGradient id="paint39_linear_122_130" x1="137.5" y1="266" x2="137.5" y2="577.381" gradientUnits="userSpaceOnUse">
<stop stop-color="#F7DD43"/>
<stop offset="1" stop-color="#F7DD43" stop-opacity="0"/>
</linearGradient>
<linearGradient id="paint40_linear_122_130" x1="137.5" y1="266" x2="137.5" y2="577.381" gradientUnits="userSpaceOnUse">
<stop stop-color="#F7DD43"/>
<stop offset="1" stop-color="#F7DD43" stop-opacity="0"/>
</linearGradient>
<linearGradient id="paint41_linear_122_130" x1="137.5" y1="266" x2="137.5" y2="577.381" gradientUnits="userSpaceOnUse">
<stop stop-color="#F7DD43"/>
<stop offset="1" stop-color="#F7DD43" stop-opacity="0"/>
</linearGradient>
<linearGradient id="paint42_linear_122_130" x1="137.5" y1="266" x2="137.5" y2="577.381" gradientUnits="userSpaceOnUse">
<stop stop-color="#F7DD43"/>
<stop offset="1" stop-color="#F7DD43" stop-opacity="0"/>
</linearGradient>
<linearGradient id="paint43_linear_122_130" x1="137.5" y1="266" x2="137.5" y2="577.381" gradientUnits="userSpaceOnUse">
<stop stop-color="#F7DD43"/>
<stop offset="1" stop-color="#F7DD43" stop-opacity="0"/>
</linearGradient>
<linearGradient id="paint44_linear_122_130" x1="137.5" y1="266" x2="137.5" y2="577.381" gradientUnits="userSpaceOnUse">
<stop stop-color="#F7DD43"/>
<stop offset="1" stop-color="#F7DD43" stop-opacity="0"/>
</linearGradient>
<linearGradient id="paint45_linear_122_130" x1="137.5" y1="266" x2="137.5" y2="577.381" gradientUnits="userSpaceOnUse">
<stop stop-color="#F7DD43"/>
<stop offset="1" stop-color="#F7DD43" stop-opacity="0"/>
</linearGradient>
<linearGradient id="paint46_linear_122_130" x1="137.5" y1="266" x2="137.5" y2="577.381" gradientUnits="userSpaceOnUse">
<stop stop-color="#F7DD43"/>
<stop offset="1" stop-color="#F7DD43" stop-opacity="0"/>
</linearGradient>
<linearGradient id="paint47_linear_122_130" x1="1023.5" y1="-34" x2="1023.5" y2="264.818" gradientUnits="userSpaceOnUse">
<stop stop-color="#F7DD43"/>
<stop offset="1" stop-color="#F7DD43" stop-opacity="0"/>
</linearGradient>
<linearGradient id="paint48_linear_122_130" x1="1023.5" y1="-34" x2="1023.5" y2="264.818" gradientUnits="userSpaceOnUse">
<stop stop-color="#F7DD43"/>
<stop offset="1" stop-color="#F7DD43" stop-opacity="0"/>
</linearGradient>
<linearGradient id="paint49_linear_122_130" x1="1023.5" y1="-34" x2="1023.5" y2="264.818" gradientUnits="userSpaceOnUse">
<stop stop-color="#F7DD43"/>
<stop offset="1" stop-color="#F7DD43" stop-opacity="0"/>
</linearGradient>
<linearGradient id="paint50_linear_122_130" x1="1023.5" y1="-34" x2="1023.5" y2="264.818" gradientUnits="userSpaceOnUse">
<stop stop-color="#F7DD43"/>
<stop offset="1" stop-color="#F7DD43" stop-opacity="0"/>
</linearGradient>
<linearGradient id="paint51_linear_122_130" x1="1023.5" y1="-34" x2="1023.5" y2="264.818" gradientUnits="userSpaceOnUse">
<stop stop-color="#F7DD43"/>
<stop offset="1" stop-color="#F7DD43" stop-opacity="0"/>
</linearGradient>
<linearGradient id="paint52_linear_122_130" x1="1023.5" y1="-34" x2="1023.5" y2="264.818" gradientUnits="userSpaceOnUse">
<stop stop-color="#F7DD43"/>
<stop offset="1" stop-color="#F7DD43" stop-opacity="0"/>
</linearGradient>
<linearGradient id="paint53_linear_122_130" x1="1023.5" y1="-34" x2="1023.5" y2="264.818" gradientUnits="userSpaceOnUse">
<stop stop-color="#F7DD43"/>
<stop offset="1" stop-color="#F7DD43" stop-opacity="0"/>
</linearGradient>
<linearGradient id="paint54_linear_122_130" x1="1023.5" y1="-34" x2="1023.5" y2="264.818" gradientUnits="userSpaceOnUse">
<stop stop-color="#F7DD43"/>
<stop offset="1" stop-color="#F7DD43" stop-opacity="0"/>
</linearGradient>
<linearGradient id="paint55_linear_122_130" x1="1023.5" y1="-34" x2="1023.5" y2="264.818" gradientUnits="userSpaceOnUse">
<stop stop-color="#F7DD43"/>
<stop offset="1" stop-color="#F7DD43" stop-opacity="0"/>
</linearGradient>
<linearGradient id="paint56_linear_122_130" x1="1023.5" y1="-34" x2="1023.5" y2="264.818" gradientUnits="userSpaceOnUse">
<stop stop-color="#F7DD43"/>
<stop offset="1" stop-color="#F7DD43" stop-opacity="0"/>
</linearGradient>
<linearGradient id="paint57_linear_122_130" x1="1023.5" y1="-34" x2="1023.5" y2="264.818" gradientUnits="userSpaceOnUse">
<stop stop-color="#F7DD43"/>
<stop offset="1" stop-color="#F7DD43" stop-opacity="0"/>
</linearGradient>
<linearGradient id="paint58_linear_122_130" x1="1023.5" y1="-34" x2="1023.5" y2="264.818" gradientUnits="userSpaceOnUse">
<stop stop-color="#F7DD43"/>
<stop offset="1" stop-color="#F7DD43" stop-opacity="0"/>
</linearGradient>
<linearGradient id="paint59_linear_122_130" x1="1023.5" y1="-34" x2="1023.5" y2="264.818" gradientUnits="userSpaceOnUse">
<stop stop-color="#F7DD43"/>
<stop offset="1" stop-color="#F7DD43" stop-opacity="0"/>
</linearGradient>
<linearGradient id="paint60_linear_122_130" x1="1023.5" y1="-34" x2="1023.5" y2="264.818" gradientUnits="userSpaceOnUse">
<stop stop-color="#F7DD43"/>
<stop offset="1" stop-color="#F7DD43" stop-opacity="0"/>
</linearGradient>
<linearGradient id="paint61_linear_122_130" x1="1023.5" y1="-34" x2="1023.5" y2="264.818" gradientUnits="userSpaceOnUse">
<stop stop-color="#F7DD43"/>
<stop offset="1" stop-color="#F7DD43" stop-opacity="0"/>
</linearGradient>
<linearGradient id="paint62_linear_122_130" x1="1023.5" y1="-34" x2="1023.5" y2="264.818" gradientUnits="userSpaceOnUse">
<stop stop-color="#F7DD43"/>
<stop offset="1" stop-color="#F7DD43" stop-opacity="0"/>
</linearGradient>
<linearGradient id="paint63_linear_122_130" x1="1023.5" y1="-34" x2="1023.5" y2="264.818" gradientUnits="userSpaceOnUse">
<stop stop-color="#F7DD43"/>
<stop offset="1" stop-color="#F7DD43" stop-opacity="0"/>
</linearGradient>
<linearGradient id="paint64_linear_122_130" x1="1023.5" y1="-34" x2="1023.5" y2="264.818" gradientUnits="userSpaceOnUse">
<stop stop-color="#F7DD43"/>
<stop offset="1" stop-color="#F7DD43" stop-opacity="0"/>
</linearGradient>
<linearGradient id="paint65_linear_122_130" x1="1023.5" y1="-34" x2="1023.5" y2="264.818" gradientUnits="userSpaceOnUse">
<stop stop-color="#F7DD43"/>
<stop offset="1" stop-color="#F7DD43" stop-opacity="0"/>
</linearGradient>
<linearGradient id="paint66_linear_122_130" x1="1023.5" y1="-34" x2="1023.5" y2="264.818" gradientUnits="userSpaceOnUse">
<stop stop-color="#F7DD43"/>
<stop offset="1" stop-color="#F7DD43" stop-opacity="0"/>
</linearGradient>
<linearGradient id="paint67_linear_122_130" x1="1023.5" y1="-34" x2="1023.5" y2="264.818" gradientUnits="userSpaceOnUse">
<stop stop-color="#F7DD43"/>
<stop offset="1" stop-color="#F7DD43" stop-opacity="0"/>
</linearGradient>
<linearGradient id="paint68_linear_122_130" x1="1023.5" y1="-34" x2="1023.5" y2="264.818" gradientUnits="userSpaceOnUse">
<stop stop-color="#F7DD43"/>
<stop offset="1" stop-color="#F7DD43" stop-opacity="0"/>
</linearGradient>
<linearGradient id="paint69_linear_122_130" x1="1023.5" y1="-34" x2="1023.5" y2="264.818" gradientUnits="userSpaceOnUse">
<stop stop-color="#F7DD43"/>
<stop offset="1" stop-color="#F7DD43" stop-opacity="0"/>
</linearGradient>
<linearGradient id="paint70_linear_122_130" x1="1023.5" y1="-34" x2="1023.5" y2="264.818" gradientUnits="userSpaceOnUse">
<stop stop-color="#F7DD43"/>
<stop offset="1" stop-color="#F7DD43" stop-opacity="0"/>
</linearGradient>
<linearGradient id="paint71_linear_122_130" x1="1023.5" y1="-34" x2="1023.5" y2="264.818" gradientUnits="userSpaceOnUse">
<stop stop-color="#F7DD43"/>
<stop offset="1" stop-color="#F7DD43" stop-opacity="0"/>
</linearGradient>
<linearGradient id="paint72_linear_122_130" x1="1023.5" y1="-34" x2="1023.5" y2="264.818" gradientUnits="userSpaceOnUse">
<stop stop-color="#F7DD43"/>
<stop offset="1" stop-color="#F7DD43" stop-opacity="0"/>
</linearGradient>
<linearGradient id="paint73_linear_122_130" x1="1023.5" y1="-34" x2="1023.5" y2="264.818" gradientUnits="userSpaceOnUse">
<stop stop-color="#F7DD43"/>
<stop offset="1" stop-color="#F7DD43" stop-opacity="0"/>
</linearGradient>
<linearGradient id="paint74_linear_122_130" x1="1023.5" y1="-34" x2="1023.5" y2="264.818" gradientUnits="userSpaceOnUse">
<stop stop-color="#F7DD43"/>
<stop offset="1" stop-color="#F7DD43" stop-opacity="0"/>
</linearGradient>
<linearGradient id="paint75_linear_122_130" x1="1023.5" y1="-34" x2="1023.5" y2="264.818" gradientUnits="userSpaceOnUse">
<stop stop-color="#F7DD43"/>
<stop offset="1" stop-color="#F7DD43" stop-opacity="0"/>
</linearGradient>
<linearGradient id="paint76_linear_122_130" x1="1023.5" y1="-34" x2="1023.5" y2="264.818" gradientUnits="userSpaceOnUse">
<stop stop-color="#F7DD43"/>
<stop offset="1" stop-color="#F7DD43" stop-opacity="0"/>
</linearGradient>
<linearGradient id="paint77_linear_122_130" x1="1023.5" y1="-34" x2="1023.5" y2="264.818" gradientUnits="userSpaceOnUse">
<stop stop-color="#F7DD43"/>
<stop offset="1" stop-color="#F7DD43" stop-opacity="0"/>
</linearGradient>
<linearGradient id="paint78_linear_122_130" x1="1023.5" y1="-34" x2="1023.5" y2="264.818" gradientUnits="userSpaceOnUse">
<stop stop-color="#F7DD43"/>
<stop offset="1" stop-color="#F7DD43" stop-opacity="0"/>
</linearGradient>
<linearGradient id="paint79_linear_122_130" x1="1023.5" y1="-34" x2="1023.5" y2="264.818" gradientUnits="userSpaceOnUse">
<stop stop-color="#F7DD43"/>
<stop offset="1" stop-color="#F7DD43" stop-opacity="0"/>
</linearGradient>
<linearGradient id="paint80_linear_122_130" x1="1023.5" y1="-34" x2="1023.5" y2="264.818" gradientUnits="userSpaceOnUse">
<stop stop-color="#F7DD43"/>
<stop offset="1" stop-color="#F7DD43" stop-opacity="0"/>
</linearGradient>
<linearGradient id="paint81_linear_122_130" x1="1023.5" y1="-34" x2="1023.5" y2="264.818" gradientUnits="userSpaceOnUse">
<stop stop-color="#F7DD43"/>
<stop offset="1" stop-color="#F7DD43" stop-opacity="0"/>
</linearGradient>
<linearGradient id="paint82_linear_122_130" x1="1023.5" y1="-34" x2="1023.5" y2="264.818" gradientUnits="userSpaceOnUse">
<stop stop-color="#F7DD43"/>
<stop offset="1" stop-color="#F7DD43" stop-opacity="0"/>
</linearGradient>
<linearGradient id="paint83_linear_122_130" x1="1023.5" y1="-34" x2="1023.5" y2="264.818" gradientUnits="userSpaceOnUse">
<stop stop-color="#F7DD43"/>
<stop offset="1" stop-color="#F7DD43" stop-opacity="0"/>
</linearGradient>
<linearGradient id="paint84_linear_122_130" x1="1023.5" y1="-34" x2="1023.5" y2="264.818" gradientUnits="userSpaceOnUse">
<stop stop-color="#F7DD43"/>
<stop offset="1" stop-color="#F7DD43" stop-opacity="0"/>
</linearGradient>
<linearGradient id="paint85_linear_122_130" x1="1023.5" y1="-34" x2="1023.5" y2="264.818" gradientUnits="userSpaceOnUse">
<stop stop-color="#F7DD43"/>
<stop offset="1" stop-color="#F7DD43" stop-opacity="0"/>
</linearGradient>
<linearGradient id="paint86_linear_122_130" x1="1023.5" y1="-34" x2="1023.5" y2="264.818" gradientUnits="userSpaceOnUse">
<stop stop-color="#F7DD43"/>
<stop offset="1" stop-color="#F7DD43" stop-opacity="0"/>
</linearGradient>
<linearGradient id="paint87_linear_122_130" x1="1023.5" y1="-34" x2="1023.5" y2="264.818" gradientUnits="userSpaceOnUse">
<stop stop-color="#F7DD43"/>
<stop offset="1" stop-color="#F7DD43" stop-opacity="0"/>
</linearGradient>
<linearGradient id="paint88_linear_122_130" x1="1023.5" y1="-34" x2="1023.5" y2="264.818" gradientUnits="userSpaceOnUse">
<stop stop-color="#F7DD43"/>
<stop offset="1" stop-color="#F7DD43" stop-opacity="0"/>
</linearGradient>
<linearGradient id="paint89_linear_122_130" x1="1023.5" y1="-34" x2="1023.5" y2="264.818" gradientUnits="userSpaceOnUse">
<stop stop-color="#F7DD43"/>
<stop offset="1" stop-color="#F7DD43" stop-opacity="0"/>
</linearGradient>
<linearGradient id="paint90_linear_122_130" x1="1023.5" y1="-34" x2="1023.5" y2="264.818" gradientUnits="userSpaceOnUse">
<stop stop-color="#F7DD43"/>
<stop offset="1" stop-color="#F7DD43" stop-opacity="0"/>
</linearGradient>
<linearGradient id="paint91_linear_122_130" x1="1023.5" y1="-34" x2="1023.5" y2="264.818" gradientUnits="userSpaceOnUse">
<stop stop-color="#F7DD43"/>
<stop offset="1" stop-color="#F7DD43" stop-opacity="0"/>
</linearGradient>
<linearGradient id="paint92_linear_122_130" x1="1023.5" y1="-34" x2="1023.5" y2="264.818" gradientUnits="userSpaceOnUse">
<stop stop-color="#F7DD43"/>
<stop offset="1" stop-color="#F7DD43" stop-opacity="0"/>
</linearGradient>
<linearGradient id="paint93_linear_122_130" x1="1023.5" y1="-34" x2="1023.5" y2="264.818" gradientUnits="userSpaceOnUse">
<stop stop-color="#F7DD43"/>
<stop offset="1" stop-color="#F7DD43" stop-opacity="0"/>
</linearGradient>
<clipPath id="clip0_122_130">
<rect width="1024" height="753" fill="white"/>
</clipPath>
</defs>
</svg>
